<svg xmlns="http://www.w3.org/2000/svg" viewBox="0 0 600 400" fill="none">
  <!-- Browser window frame -->
  <rect x="20" y="10" width="560" height="380" rx="12" fill="#1e293b"/>
  <rect x="20" y="10" width="560" height="42" rx="12" fill="#334155"/>
  <rect x="20" y="40" width="560" height="12" fill="#1e293b"/>
  <circle cx="46" cy="31" r="6" fill="#ef4444"/>
  <circle cx="68" cy="31" r="6" fill="#f59e0b"/>
  <circle cx="90" cy="31" r="6" fill="#22c55e"/>
  
  <!-- Sidebar -->
  <rect x="36" y="66" width="140" height="308" rx="8" fill="#0f172a"/>
  <rect x="52" y="82" width="108" height="8" rx="4" fill="#334155"/>
  <rect x="52" y="102" width="80" height="8" rx="4" fill="#334155"/>
  <rect x="52" y="122" width="64" height="8" rx="4" fill="#334155"/>
  <rect x="52" y="150" width="90" height="8" rx="4" fill="#2563eb" opacity="0.6"/>
  
  <!-- Stats cards -->
  <rect x="196" y="66" width="170" height="70" rx="8" fill="#0f172a"/>
  <rect x="210" y="80" width="60" height="8" rx="4" fill="#64748b"/>
  <rect x="210" y="96" width="40" height="14" rx="4" fill="#f8fafc"/>
  <text x="340" y="88" text-anchor="middle" font-family="system-ui" font-size="28" fill="#22c55e">$</text>
  
  <rect x="382" y="66" width="170" height="70" rx="8" fill="#0f172a"/>
  <rect x="396" y="80" width="50" height="8" rx="4" fill="#64748b"/>
  <rect x="396" y="96" width="40" height="14" rx="4" fill="#f8fafc"/>
  <text x="526" y="88" text-anchor="middle" font-family="system-ui" font-size="28" fill="#3b82f6">&#x25B2;</text>
  
  <!-- Chart placeholder -->
  <rect x="196" y="150" width="356" height="110" rx="8" fill="#0f172a"/>
  <polyline points="215,240 265,220 315,235 365,190 415,210 465,195 515,200 540,155" 
    stroke="#2563eb" stroke-width="2.5" fill="none" stroke-linecap="round"/>
  <circle cx="265" cy="220" r="3" fill="#2563eb"/>
  <circle cx="365" cy="190" r="3" fill="#2563eb"/>
  <circle cx="540" cy="155" r="3" fill="#22c55e"/>
  
  <!-- Table placeholder -->
  <rect x="196" y="274" width="356" height="100" rx="8" fill="#0f172a"/>
  <line x1="212" y1="292" x2="536" y2="292" stroke="#334155" stroke-width="1"/>
  <line x1="212" y1="310" x2="536" y2="310" stroke="#334155" stroke-width="1"/>
  <line x1="212" y1="328" x2="536" y2="328" stroke="#334155" stroke-width="1"/>
  <rect x="212" y="279" width="80" height="8" rx="3" fill="#64748b"/>
  <rect x="360" y="279" width="60" height="8" rx="3" fill="#64748b"/>
  <rect x="480" y="279" width="50" height="8" rx="3" fill="#64748b"/>
  <rect x="212" y="297" width="100" height="6" rx="3" fill="#334155"/>
  <rect x="212" y="315" width="120" height="6" rx="3" fill="#334155"/>
  <rect x="212" y="333" width="85" height="6" rx="3" fill="#334155"/>
</svg>
